<svg width="98" height="98" viewBox="0 0 98 98" fill="none" xmlns="http://www.w3.org/2000/svg">
    <path d="M96.5946 49.0001C96.5946 75.7945 75.2694 97.5 48.9826 97.5C22.6958 97.5 1.37061 75.7945 1.37061 49.0001C1.37061 22.2057 22.6958 0.500183 48.9826 0.500183C75.2694 0.500183 96.5946 22.2057 96.5946 49.0001Z" fill="white" stroke="white"/>
    <path fill-rule="evenodd" clip-rule="evenodd" d="M55.586 2.37875C61.9902 3.27632 63.133 3.33023 74.4535 9.51468C73.5101 10.9419 73.4948 13.0937 75.0272 14.8149C77.9237 17.1262 80.0881 19.9044 81.5201 23.1494C70.701 11.4392 57.3216 6.27971 41.3818 7.67099C45.0904 6.69312 49.0256 6.09779 53.1872 5.88501C51.6132 5.09124 50.0391 4.29748 48.4651 3.50371C51.1919 2.91237 51.8125 1.90301 55.586 2.37875Z" fill="#FBDD7C"/>
    <path fill-rule="evenodd" clip-rule="evenodd" d="M57.9445 2.85476C55.1622 2.66031 51.1918 2.91264 48.465 3.50398C50.039 4.29775 51.6132 5.09151 53.1872 5.88528C49.0255 6.09806 45.0903 6.69339 41.3818 7.67126C24.1857 11.9174 13.1673 22.6332 8.32674 39.8188C7.3522 45.1552 6.76193 50.7116 6.55593 56.4879C4.00718 53.5634 3.02341 54.3572 3.60458 58.8692C-1.48803 34.7285 13.1342 11.8936 32.4734 4.75769C40.7479 1.78003 49.6914 1.06775 57.9445 2.85476Z" fill="#FDF097"/>
    <path fill-rule="evenodd" clip-rule="evenodd" d="M80.3395 25.5307C83.2071 29.4 74.7521 33.5457 69.7147 35.0559C69.9172 33.8753 69.5237 33.0815 68.5341 32.6746C67.5389 30.6823 65.9649 29.2932 63.812 28.5073C53.1871 27.7135 42.5623 27.7135 31.9375 28.5073C30 29.8516 28.8194 31.6376 28.3958 33.8653C27.4263 37.6056 26.836 41.5745 26.625 45.7718C26.3587 42.682 25.7684 39.7054 24.8542 36.8419C25.2477 36.445 25.6413 36.0481 26.0348 35.6512C24.9532 35.2057 23.9693 34.6104 23.0834 33.8653C19.9353 37.0404 16.7873 40.2154 13.6391 43.3905C12.4635 47.4493 11.4797 51.4182 10.6878 55.297C8.18726 35.1424 16.0576 20.6561 34.2985 11.8382C52.6261 6.8211 67.9731 11.3853 80.3395 25.5307Z" fill="#FDDD85"/>
    <path fill-rule="evenodd" clip-rule="evenodd" d="M74.4538 9.51486C79.6423 13.7964 82.0007 15.2236 87.4231 21.959C86.2425 23.1496 85.062 24.3403 83.8815 25.5309C82.7009 25.1341 81.9139 24.3403 81.5204 23.1496C80.0884 19.9046 77.924 17.1264 75.0274 14.8151C73.4951 13.0939 73.315 10.9687 74.4538 9.51486Z" fill="#FECD64"/>
    <path fill-rule="evenodd" clip-rule="evenodd" d="M68.5342 32.6747C68.1407 32.6747 67.7471 32.6747 67.3536 32.6747C66.4221 32.338 65.635 31.7427 64.9925 30.8888C53.9742 30.095 42.9558 30.095 31.9375 30.8888C31.2811 31.3443 30.8876 31.9396 30.7569 32.6747C29.7776 42.7837 29.1873 53.1027 28.9861 63.6317C28.3962 53.7175 28.1994 43.7954 28.3959 33.8654C28.8194 31.6377 30 29.8517 31.9375 28.5075C42.5623 27.7137 53.1872 27.7137 63.812 28.5075C65.965 29.2933 67.539 30.6824 68.5342 32.6747Z" fill="#E6BA5B"/>
    <path fill-rule="evenodd" clip-rule="evenodd" d="M41.3819 7.67138C57.3216 6.28011 70.701 11.4396 81.5202 23.1498C82.5298 24.2425 83.2072 24.7583 83.8813 25.5311C83.8813 25.928 83.8813 26.325 83.8813 26.7218C83.8813 27.5156 83.8813 28.3093 83.8813 29.1031C82.4315 28.1428 81.2509 26.9522 80.3397 25.5311C67.9733 11.3857 52.6263 6.82154 34.2987 11.8387C16.0577 20.6565 8.18739 35.1428 10.6879 55.2974C12.0074 65.3458 16.7295 73.2835 24.8544 79.1104C25.6414 80.3011 26.4284 81.4917 27.2154 82.6824C11.6119 72.842 5.31566 58.5542 8.32683 39.819C13.1674 22.6333 24.1858 11.9175 41.3819 7.67138Z" fill="#B78B3A"/>
    <path fill-rule="evenodd" clip-rule="evenodd" d="M67.3538 32.6747C67.5503 43.7945 67.3535 54.9072 66.7635 66.0129C66.3118 66.6749 65.7215 67.0718 64.9927 67.2036C53.9673 67.4018 42.949 67.2033 31.9376 66.6082C31.2812 66.1527 30.8878 65.5574 30.7571 64.8223C30.7571 54.1064 30.7571 43.3906 30.7571 32.6747C30.8878 31.9396 31.2812 31.3443 31.9376 30.8887C42.9559 30.0949 53.9744 30.0949 64.9927 30.8887C65.6351 31.7427 66.4222 32.338 67.3538 32.6747Z" fill="#FEE586"/>
    <path fill-rule="evenodd" clip-rule="evenodd" d="M30.7571 32.6748C30.7571 43.3906 30.7571 54.1065 30.7571 64.8223C29.7748 67.4713 30.9553 69.0588 34.2988 69.5849C34.2988 70.3788 34.6922 70.7756 35.4793 70.7756C33.6202 74.4453 31.0623 77.6204 27.8058 80.3008C27.0139 79.405 26.6253 82.6821 24.8544 79.1102C16.7296 73.2832 12.0075 65.3455 10.688 55.2971C11.4799 51.4184 12.4638 47.4494 13.6393 43.3906C16.7875 40.2155 19.9355 37.0405 23.0836 33.8654C23.9695 34.6105 24.9534 35.2059 26.035 35.6514C25.6415 36.0482 25.2479 36.4452 24.8544 36.8421C25.7687 39.7056 26.3589 42.6822 26.6253 45.7719C26.8362 41.5747 27.4265 37.6057 28.3961 33.8654C28.1996 43.7955 28.3964 53.7175 28.9863 63.6317C29.1875 53.1028 29.7778 42.7838 30.7571 32.6748Z" fill="#FDDB83"/>
    <path fill-rule="evenodd" clip-rule="evenodd" d="M89.9152 32.8071C101.665 54.3316 92.0896 67.098 73.2565 83.2775C63.661 89.8593 53.0361 92.4391 41.382 91.0167C38.2297 90.1263 35.0815 88.9356 31.9376 87.4448C31.5442 86.651 27.3459 83.8361 26.9524 83.0423C31.4197 85.2045 39.9465 88.4164 44.9236 88.6354C65.5922 89.9297 79.3652 80.8014 86.2424 61.2505C89.5796 50.4186 88.7926 39.7028 83.8813 29.1029C83.8813 28.8496 82.1295 31.8462 81.1616 30.09C79.0963 26.3425 84.9307 21.2975 89.9152 32.8071Z" fill="#F0D29D"/>
    <path fill-rule="evenodd" clip-rule="evenodd" d="M80.6504 25.9631C82.1087 27.4339 82.5968 27.8767 83.8815 29.1024C88.7928 39.7023 89.5798 50.4181 86.2426 61.25C84.1995 60.4086 82.2319 59.218 80.3399 57.678C76.9687 60.0855 74.2141 63.0621 72.0762 66.6079C70.9702 67.4315 70.1833 67.233 69.7151 66.0126C69.7151 55.6935 69.7151 45.3746 69.7151 35.0556C73.3609 31.7989 77.699 30.1304 80.6504 25.9631Z" fill="#FFCA42"/>
    <path fill-rule="evenodd" clip-rule="evenodd" d="M67.3539 32.6745C67.7474 32.6745 68.141 32.6745 68.5344 32.6745C69.524 33.0813 69.9176 33.8752 69.715 35.0558C69.715 45.3748 69.715 55.6937 69.715 66.0127C68.385 66.7529 67.2044 67.7451 66.1734 68.9893C55.5558 69.5844 44.931 69.7828 34.2988 69.5847C44.5302 68.7909 54.7615 67.9972 64.9928 67.2034C65.7217 67.0716 66.312 66.6747 66.7636 66.0127C67.3537 54.907 67.5505 43.7943 67.3539 32.6745Z" fill="#AA7923"/>
    <path fill-rule="evenodd" clip-rule="evenodd" d="M30.7572 64.8209C30.8879 65.556 31.2814 66.1514 31.9378 66.6069C42.9491 67.202 53.9674 67.4005 64.9928 67.2022C54.7615 67.996 44.5302 68.7897 34.2988 69.5835C30.9554 69.0574 29.7749 67.4699 30.7572 64.8209Z" fill="#D2B05B"/>
    <path fill-rule="evenodd" clip-rule="evenodd" d="M8.3269 39.8178C5.31573 58.5531 11.612 72.8409 27.2155 82.6812C28.7797 83.6677 31.5551 86.1361 32.5779 87.6834C32.9713 88.4772 26.0475 84.3107 26.441 85.1045C21.5799 83.244 22.7479 82.8052 18.9517 79.1093C18.5583 79.3078 18.1647 79.5061 17.7712 79.7046C19.3452 81.2921 20.9193 82.8797 22.4934 84.4672C21.4122 84.7987 20.6252 85.394 20.1323 86.2532C11.3144 79.1868 5.80521 70.0584 3.60475 58.8682C3.02357 54.3561 4.00734 53.5623 6.55609 56.4869C6.76209 50.7106 7.35236 45.1542 8.3269 39.8178Z" fill="#FAD575"/>
    <path fill-rule="evenodd" clip-rule="evenodd" d="M35.4795 70.776C44.9319 70.5779 54.3763 70.7764 63.8124 71.3713C56.6111 76.2375 50.3148 81.9923 44.9238 88.6358C39.9468 88.4167 35.2246 87.226 30.7573 85.0638C28.9982 84.0742 28.4868 83.5584 27.2157 82.6825C26.4287 81.4919 26.8222 82.0872 26.0352 80.8965C25.4449 80.8965 27.806 79.7059 27.806 80.3012C31.0625 77.6208 33.6204 74.4457 35.4795 70.776Z" fill="#FFCA42"/>
    <path fill-rule="evenodd" clip-rule="evenodd" d="M86.2425 61.2504C79.3653 80.8014 65.5923 89.9296 44.9237 88.6354C50.3147 81.9919 56.611 76.2371 63.8123 71.371C54.3761 70.776 44.9318 70.5775 35.4794 70.7756C34.6923 70.7756 34.2988 70.3788 34.2988 69.585C44.931 69.7831 55.5558 69.5847 66.1733 68.9897C67.2044 67.7454 68.385 66.7533 69.715 66.013C70.1832 67.2334 70.9701 67.4319 72.076 66.6083C74.214 63.0626 76.9685 60.086 80.3398 57.6785C82.2317 59.2185 84.1993 60.4091 86.2425 61.2504Z" fill="#FDC125"/>
    <path fill-rule="evenodd" clip-rule="evenodd" d="M87.4229 21.9586C99.9247 41.8639 98.038 70.4075 76.7981 86.8491C64.5482 95.6211 52.7561 97.524 39.0771 95.1454C39.57 94.2862 40.3008 93.1338 41.3819 92.8023C38.3158 91.8746 38.3158 91.2793 41.3819 91.0164C53.0361 92.4387 63.6609 89.8589 73.2564 83.2771C92.0896 67.0976 95.6312 48.2456 83.8813 26.7212C83.8813 26.3243 82.7882 20.9918 81.6729 18.7422C78.0013 11.3359 82.6958 16.6791 87.4229 21.9586Z" fill="#EAB222"/>
    <path fill-rule="evenodd" clip-rule="evenodd" d="M31.9377 87.4444C35.0816 88.9352 38.2297 90.1259 41.382 91.0164C38.3159 91.2793 38.3159 91.8746 41.382 92.8023C40.3009 93.1338 39.5701 94.2862 39.0772 95.1453C31.9377 93.2424 26.3417 90.3881 20.1323 86.2538C20.6252 85.3946 21.4123 84.7993 22.4934 84.4678C20.9194 82.8803 19.3453 81.2927 17.7712 79.7052C18.1647 79.5067 18.5583 79.3083 18.9518 79.1099C22.7479 82.8058 27.0766 85.5839 31.9377 87.4444Z" fill="#F3B947"/>
</svg>
