<svg width="100" height="98" viewBox="0 0 100 98" fill="none" xmlns="http://www.w3.org/2000/svg">
    <path d="M0.810439 27.9202L1.30462 27.9953L0.810438 27.9202C-0.509784 36.6082 2.4632 46.958 8.17565 53.5499C9.32431 54.8757 13.9483 59.8998 16.4129 62.5012L16.7759 62.1573L16.4129 62.5012C17.1443 63.2732 18.1352 64.3324 18.614 64.8543C19.0972 65.3811 20.0883 66.4449 20.8172 67.2194C25.2096 71.8869 27.8406 74.75 28.8824 75.994C30.2781 77.6607 32.5769 80.1955 33.7724 81.3849L34.1251 81.0305L33.7724 81.3849C34.3221 81.9318 35.5851 83.2376 36.5774 84.2854C37.5735 85.3373 39.5608 87.3956 40.9949 88.8608C42.4293 90.3264 43.927 91.8788 44.3253 92.3126L44.3254 92.3127C44.7297 92.7529 45.655 93.7638 46.3813 94.5589L46.3814 94.5589C46.8986 95.1249 47.3393 95.576 47.7342 95.8941C48.1255 96.2092 48.5258 96.439 48.9627 96.4807C49.4208 96.5243 49.8205 96.3536 50.1854 96.0799C50.5399 95.814 50.9028 95.4201 51.3044 94.9406C52.2634 93.7958 55.8703 89.9065 56.6915 89.13C57.81 88.0726 60.599 85.1273 64.9507 80.4112C67.7107 77.4205 72.3751 72.3858 75.2211 69.3257C76.7607 67.6702 78.9867 65.2758 80.1674 64.0049C81.3476 62.7348 82.8698 61.1094 83.5492 60.3933C84.2337 59.6722 85.3642 58.4495 86.0639 57.6734C86.7614 56.8996 87.5361 56.0563 87.786 55.7979L87.786 55.7978C91.5015 51.9546 93.8884 48.2322 95.5275 43.7052C96.4482 41.1624 96.932 39.8225 97.1825 38.4433C97.433 37.0636 97.4485 35.6533 97.4754 32.978C97.5055 29.9672 97.4961 28.2512 97.2356 26.6604C96.9741 25.0642 96.4626 23.61 95.5306 21.1184C93.1728 14.8153 89.2923 9.67384 84.2557 6.21289C73.5761 -1.12674 60.8938 -0.612877 50.5054 7.55951L50.5053 7.55955C50.0901 7.88629 49.7877 8.10919 49.5377 8.25154C49.2932 8.3907 49.1367 8.43034 49.0114 8.43023C48.8857 8.43013 48.7279 8.39002 48.4812 8.24996C48.229 8.10687 47.9239 7.88312 47.5052 7.55572L47.5052 7.5557C41.2658 2.67705 34.393 0.512193 27.1613 1.17743L27.2071 1.67526L27.1613 1.17743C13.7276 2.41347 3.0281 13.3273 0.810439 27.9202Z" fill="#FC0414" stroke="#CECECE"/>
</svg>
