<svg width="160" height="32" viewBox="0 0 160 32" fill="none" xmlns="http://www.w3.org/2000/svg">
    <g filter="url(#filter0_d_3243_342)">
        <path d="M135.782 18.1318C135.958 18.1318 136.094 18.215 136.189 18.3813C136.297 18.5477 136.352 18.7764 136.352 19.0676C136.352 19.6082 136.223 20.038 135.965 20.3569C135.314 21.1609 134.655 21.7848 133.99 22.2284C133.326 22.6582 132.538 22.8731 131.629 22.8731C130.747 22.8731 129.994 22.6305 129.37 22.1453C128.759 21.66 128.176 20.8282 127.619 19.6498C127.172 18.7071 126.819 18.014 126.561 17.5703C126.303 17.1128 126.045 16.787 125.787 16.593C125.543 16.3988 125.238 16.281 124.871 16.2394C124.817 16.5306 124.661 17.4455 124.403 18.9844C124.295 19.6776 124.227 20.1004 124.2 20.2529C124.064 21.0986 123.793 21.7501 123.386 22.2076C122.979 22.6513 122.361 22.8731 121.533 22.8731C120.624 22.8731 119.817 22.6027 119.111 22.0621C118.419 21.5075 117.883 20.745 117.503 19.7746C117.123 18.7903 116.933 17.6743 116.933 16.4266C116.933 14.0975 117.327 12.0873 118.114 10.396C118.914 8.70463 120.027 7.41537 121.452 6.5281C122.89 5.62696 124.546 5.17642 126.418 5.17642C127.721 5.17642 128.813 5.37744 129.696 5.77948C130.578 6.18152 131.229 6.73603 131.65 7.44309C132.084 8.15012 132.301 8.94725 132.301 9.83451C132.301 10.6109 132.118 11.3733 131.751 12.122C131.399 12.8568 130.863 13.5083 130.143 14.0767C129.424 14.6451 128.549 15.068 127.518 15.3452C128.169 15.5255 128.671 15.8166 129.024 16.2186C129.377 16.6207 129.73 17.2099 130.083 17.9862C130.462 18.818 130.836 19.428 131.202 19.8162C131.582 20.2044 132.016 20.3985 132.505 20.3985C132.939 20.3985 133.353 20.2529 133.746 19.9617C134.14 19.6568 134.635 19.1438 135.232 18.4229C135.395 18.2288 135.578 18.1318 135.782 18.1318ZM122.062 16.2186C121.601 16.2186 121.282 16.1077 121.106 15.8859C120.943 15.6641 120.862 15.4146 120.862 15.1373C120.862 14.8045 120.963 14.5412 121.167 14.3471C121.384 14.153 121.628 14.0559 121.9 14.0559H122.409C122.625 12.6973 122.829 11.5259 123.019 10.5415C123.196 9.64045 123.766 9.18986 124.729 9.18986C125.503 9.18986 125.889 9.54339 125.889 10.2504C125.889 10.4029 125.883 10.5208 125.869 10.604L125.258 14.0559C125.991 14.0143 126.656 13.8341 127.253 13.5153C127.864 13.1964 128.345 12.7528 128.698 12.1844C129.064 11.616 129.248 10.9713 129.248 10.2504C129.248 9.37702 128.956 8.69077 128.372 8.19171C127.789 7.69262 126.934 7.44309 125.808 7.44309C124.478 7.44309 123.311 7.78272 122.307 8.46206C121.316 9.12749 120.543 10.1256 119.986 11.4565C119.43 12.7736 119.152 14.3817 119.152 16.281C119.152 17.1683 119.24 17.9308 119.417 18.5685C119.593 19.2062 119.81 19.6845 120.068 20.0033C120.326 20.3222 120.57 20.4816 120.8 20.4816C120.977 20.4816 121.12 20.3915 121.228 20.2113C121.35 20.0311 121.445 19.7399 121.513 19.3379L122.062 16.2186ZM144.684 16.385C144.861 16.385 144.996 16.4751 145.091 16.6553C145.186 16.8356 145.233 17.0643 145.233 17.3416C145.233 18.007 145.037 18.4021 144.643 18.5269C143.829 18.818 142.933 18.9844 141.956 19.026C141.699 20.1905 141.189 21.1263 140.43 21.8333C139.67 22.5265 138.808 22.8731 137.845 22.8731C137.031 22.8731 136.332 22.672 135.748 22.27C135.178 21.868 134.744 21.3342 134.445 20.6688C134.147 20.0033 133.998 19.2824 133.998 18.5061C133.998 17.4525 134.195 16.5167 134.588 15.6988C134.981 14.867 135.524 14.2223 136.216 13.7648C136.908 13.2934 137.675 13.0578 138.516 13.0578C139.548 13.0578 140.376 13.4251 141 14.1599C141.638 14.8808 142.011 15.775 142.119 16.8425C142.757 16.8009 143.517 16.6623 144.399 16.4266C144.507 16.3988 144.603 16.385 144.684 16.385ZM138.008 20.6688C138.442 20.6688 138.815 20.4886 139.127 20.1281C139.453 19.7677 139.67 19.2478 139.778 18.5685C139.358 18.2773 139.032 17.8961 138.801 17.4248C138.584 16.9534 138.476 16.4543 138.476 15.9275C138.476 15.7057 138.496 15.4839 138.537 15.262H138.435C137.892 15.262 137.438 15.5324 137.071 16.0731C136.719 16.5999 136.542 17.3485 136.542 18.3189C136.542 19.0814 136.684 19.6637 136.969 20.0657C137.268 20.4678 137.614 20.6688 138.008 20.6688ZM151.201 18.1318C151.378 18.1318 151.513 18.215 151.608 18.3813C151.717 18.5477 151.771 18.7764 151.771 19.0676C151.771 19.6221 151.642 20.0519 151.384 20.3569C150.801 21.0916 150.163 21.6947 149.471 22.166C148.792 22.6374 148.019 22.8731 147.151 22.8731C145.956 22.8731 145.067 22.3186 144.484 21.2095C143.914 20.1004 143.629 18.6655 143.629 16.9049C143.629 15.2135 143.839 13.2865 144.26 11.1238C144.694 8.96111 145.325 7.10343 146.153 5.55073C146.995 3.99803 147.992 3.22168 149.145 3.22168C149.796 3.22168 150.305 3.53358 150.672 4.15745C151.052 4.76743 151.242 5.64778 151.242 6.79844C151.242 8.44819 150.794 10.3613 149.898 12.5379C149.003 14.7144 147.788 16.8702 146.255 19.0052C146.35 19.5736 146.506 19.9826 146.723 20.2321C146.94 20.4678 147.225 20.5856 147.578 20.5856C148.134 20.5856 148.623 20.4262 149.043 20.1073C149.464 19.7746 150 19.2131 150.652 18.4229C150.814 18.2288 150.997 18.1318 151.201 18.1318ZM148.697 5.28038C148.385 5.28038 148.032 5.85571 147.639 7.00637C147.245 8.15703 146.899 9.58499 146.601 11.2902C146.302 12.9954 146.139 14.6313 146.112 16.1978C147.076 14.5758 147.843 12.9538 148.413 11.3318C148.982 9.69587 149.267 8.20558 149.267 6.86081C149.267 5.80721 149.077 5.28038 148.697 5.28038ZM156.008 19.837C156.158 19.6983 156.307 19.629 156.456 19.629C156.619 19.629 156.748 19.7261 156.843 19.9202C156.951 20.1004 157.006 20.3222 157.006 20.5856C157.006 21.1679 156.802 21.6323 156.395 21.9789C155.689 22.575 154.889 22.8731 153.993 22.8731C152.704 22.8731 151.761 22.3255 151.164 21.2303C150.567 20.1212 150.268 18.6794 150.268 16.9049C150.268 15.2135 150.478 13.2865 150.899 11.1238C151.333 8.96111 151.965 7.10343 152.792 5.55073C153.634 3.99803 154.631 3.22168 155.784 3.22168C156.436 3.22168 156.945 3.53358 157.311 4.15745C157.691 4.76743 157.881 5.64778 157.881 6.79844C157.881 8.44819 157.433 10.3613 156.537 12.5379C155.655 14.7144 154.448 16.8633 152.914 18.9844C153.009 19.5528 153.179 19.9617 153.423 20.2113C153.668 20.4608 154 20.5856 154.421 20.5856C154.651 20.5856 154.909 20.5163 155.194 20.3776C155.493 20.239 155.764 20.0588 156.008 19.837ZM155.337 5.28038C155.024 5.28038 154.672 5.85571 154.278 7.00637C153.884 8.15703 153.539 9.58499 153.24 11.2902C152.942 12.9954 152.778 14.6313 152.751 16.1978C153.715 14.5758 154.482 12.9538 155.052 11.3318C155.622 9.69587 155.907 8.20558 155.907 6.86081C155.907 5.80721 155.716 5.28038 155.337 5.28038Z" fill="#C4364E"/>
    </g>
    <g filter="url(#filter1_d_3243_342)">
        <path d="M36.3757 5.5293H44.1985C46.9112 5.5293 49.1749 6.52464 50.9897 8.51532C52.8045 10.4865 53.712 12.9065 53.712 15.7755C53.712 18.6249 52.8045 21.0547 50.9897 23.0649C49.1749 25.036 46.9112 26.0216 44.1985 26.0216H36.3757V5.5293ZM39.0406 23.4454H44.1985C46.2426 23.4454 47.9141 22.7136 49.2131 21.2498C50.5122 19.7666 51.1617 17.9418 51.1617 15.7755C51.1617 13.6091 50.5122 11.7843 49.2131 10.3011C47.9141 8.83734 46.2426 8.10547 44.1985 8.10547H39.0406V23.4454ZM66.7113 19.142V11.3842H69.2043V26.0216H66.7113V23.9138C65.718 25.5727 64.1706 26.4022 62.0692 26.4022C60.3882 26.4022 59.0414 25.8655 58.0289 24.7921C57.0164 23.6991 56.5102 22.2256 56.5102 20.3716V11.3842H59.0032V20.2252C59.0032 21.3962 59.3184 22.3135 59.9488 22.977C60.5792 23.6406 61.4484 23.9724 62.5564 23.9724C63.8363 23.9724 64.8488 23.5723 65.5938 22.7721C66.3388 21.9524 66.7113 20.7424 66.7113 19.142ZM75.4929 11.3842V13.8433C76.3143 12.0283 77.8044 11.1208 79.963 11.1208V13.7848C78.7404 13.7262 77.6898 14.058 76.811 14.7801C75.9323 15.5022 75.4929 16.6635 75.4929 18.2638V26.0216H72.9999V11.3842H75.4929ZM93.4818 13.9019V11.3842H95.9748V26.0216H93.4818V23.504C92.2592 25.4361 90.4539 26.4022 88.066 26.4022C86.0411 26.4022 84.3313 25.6606 82.9368 24.1773C81.5231 22.6745 80.8163 20.8497 80.8163 18.7029C80.8163 16.5756 81.5231 14.7606 82.9368 13.2578C84.3504 11.7551 86.0602 11.0037 88.066 11.0037C90.4539 11.0037 92.2592 11.9697 93.4818 13.9019ZM88.3812 23.9431C89.8331 23.9431 91.0461 23.4454 92.0204 22.4501C92.9947 21.4157 93.4818 20.1667 93.4818 18.7029C93.4818 17.2197 92.9947 15.9804 92.0204 14.985C91.0461 13.9702 89.8331 13.4627 88.3812 13.4627C86.9485 13.4627 85.745 13.9702 84.7707 14.985C83.7964 15.9804 83.3093 17.2197 83.3093 18.7029C83.3093 20.1667 83.7964 21.4157 84.7707 22.4501C85.745 23.4454 86.9485 23.9431 88.3812 23.9431ZM104.795 18.4687L111.873 26.0216H108.778L102.245 19.0835V26.0216H99.752V5.5293H102.245V17.854L108.434 11.3842H111.644L104.795 18.4687Z" fill="white"/>
    </g>
    <path d="M2.48347 0C1.11135 0 0 1.13673 0 2.54019V27.9421C0 29.3456 1.11135 30.4823 2.48347 30.4823H19.8677C21.2399 30.4823 22.3512 29.3456 22.3512 27.9421V2.54019C22.3512 1.13673 21.2399 0 19.8677 0H2.48347ZM24.5339 0.860787C24.7165 1.38915 24.8347 1.94833 24.8347 2.54019V27.9421C24.8347 29.343 24.2774 30.6145 23.3771 31.5341L24.2963 31.6829C25.651 31.9014 26.9238 30.9551 27.1387 29.5694L31.0118 4.48005C31.2266 3.09438 30.3026 1.79119 28.9479 1.57274L24.5339 0.860787ZM11.1756 6.35046C11.4314 6.35046 11.6573 6.44776 11.8547 6.58364L11.9129 6.59852C14.117 8.43384 18.626 12.9816 18.626 15.8762C18.626 18.3313 16.6802 20.3215 14.2799 20.3215C13.2779 20.3215 12.3679 19.9594 11.634 19.3764C12.2722 21.1177 13.2785 22.19 14.5128 22.9064V22.9089C14.74 23.0028 14.9008 23.2301 14.9008 23.4967C14.9008 23.8473 14.6226 24.1318 14.2799 24.1318H11.1756H8.07125C7.72855 24.1318 7.4504 23.8473 7.4504 23.4967C7.4504 23.2301 7.61122 23.0028 7.83843 22.9089V22.9064C9.07274 22.1913 10.079 21.1177 10.7172 19.3764C9.98337 19.9594 9.07334 20.3215 8.07125 20.3215C5.67101 20.3215 3.7252 18.3313 3.7252 15.8762C3.7252 12.9816 8.23423 8.43384 10.4383 6.59852L10.4965 6.58364C10.694 6.44776 10.9198 6.35046 11.1756 6.35046Z" fill="white"/>
    <defs>
        <filter id="filter0_d_3243_342" x="116.933" y="3.22168" width="42.9479" height="21.6514" filterUnits="userSpaceOnUse" color-interpolation-filters="sRGB">
            <feFlood flood-opacity="0" result="BackgroundImageFix"/>
            <feColorMatrix in="SourceAlpha" type="matrix" values="0 0 0 0 0 0 0 0 0 0 0 0 0 0 0 0 0 0 127 0" result="hardAlpha"/>
            <feOffset dx="1" dy="1"/>
            <feGaussianBlur stdDeviation="0.5"/>
            <feComposite in2="hardAlpha" operator="out"/>
            <feColorMatrix type="matrix" values="0 0 0 0 0.768627 0 0 0 0 0.211765 0 0 0 0 0.305882 0 0 0 0.65 0"/>
            <feBlend mode="normal" in2="BackgroundImageFix" result="effect1_dropShadow_3243_342"/>
            <feBlend mode="normal" in="SourceGraphic" in2="effect1_dropShadow_3243_342" result="shape"/>
        </filter>
        <filter id="filter1_d_3243_342" x="36.3757" y="5.5293" width="77.4973" height="22.8729" filterUnits="userSpaceOnUse" color-interpolation-filters="sRGB">
            <feFlood flood-opacity="0" result="BackgroundImageFix"/>
            <feColorMatrix in="SourceAlpha" type="matrix" values="0 0 0 0 0 0 0 0 0 0 0 0 0 0 0 0 0 0 127 0" result="hardAlpha"/>
            <feOffset dx="1" dy="1"/>
            <feGaussianBlur stdDeviation="0.5"/>
            <feComposite in2="hardAlpha" operator="out"/>
            <feColorMatrix type="matrix" values="0 0 0 0 1 0 0 0 0 1 0 0 0 0 1 0 0 0 0.52 0"/>
            <feBlend mode="normal" in2="BackgroundImageFix" result="effect1_dropShadow_3243_342"/>
            <feBlend mode="normal" in="SourceGraphic" in2="effect1_dropShadow_3243_342" result="shape"/>
        </filter>
    </defs>
</svg>
