<svg width="98" height="99" viewBox="0 0 98 99" fill="none" xmlns="http://www.w3.org/2000/svg">
    <mask id="path-1-outside-1_4197_496" maskUnits="userSpaceOnUse" x="0.360107" y="-0.225922" width="96" height="99" fill="black">
        <rect fill="white" x="0.360107" y="-0.225922" width="96" height="99"/>
        <path fill-rule="evenodd" clip-rule="evenodd" d="M48.3216 0.914207C45.5982 2.87707 39.661 7.54752 36.2079 10.4425C35.8484 10.7439 35.2028 11.2806 34.7733 11.6351C34.3438 11.9896 33.6443 12.5847 33.2188 12.9572C32.7936 13.3297 32.259 13.7912 32.0309 13.983C31.573 14.3679 29.8753 15.8533 28.5251 17.0503C24.485 20.6325 18.4112 26.5588 15.5564 29.7048C13.5178 31.9511 11.5567 34.238 10.348 35.7785C8.20697 38.5069 6.36725 41.1231 5.33808 42.9024C5.19433 43.1504 4.93266 43.6001 4.75621 43.9015C1.9335 48.7263 0.844937 53.4246 1.58605 57.585C1.65692 57.9824 1.67327 58.0651 1.73983 58.3581C1.778 58.5261 1.80468 58.6857 1.79894 58.7126C1.7932 58.7393 1.80583 58.8049 1.82677 58.8583C1.84772 58.9114 1.93695 59.245 2.02532 59.5995C3.50725 65.5493 8.00843 71.2142 13.8435 74.4736C14.0627 74.5957 14.2257 74.7124 14.2059 74.7324C14.1861 74.7524 14.2076 74.766 14.2538 74.7628C14.3 74.7594 14.6821 74.925 15.1028 75.131C16.1913 75.6636 17.4612 76.2035 18.3865 76.5267C18.8247 76.6799 19.1977 76.8212 19.2155 76.8412C19.233 76.8609 19.3047 76.8806 19.3747 76.8853C19.587 76.8986 20.5846 77.1902 20.6076 77.2453C20.6193 77.2737 20.6521 77.2824 20.6805 77.2647C20.7255 77.2366 21.759 77.4443 22.0206 77.5342C22.0734 77.5522 22.2419 77.5781 22.3951 77.5914C22.5486 77.6047 22.709 77.6451 22.7517 77.681C22.7945 77.717 22.8455 77.7301 22.8648 77.7103C22.8843 77.6909 23.0538 77.706 23.2415 77.744C23.4294 77.782 23.6833 77.8241 23.8061 77.8371C26.2036 78.0945 28.1332 78.1336 30.0225 77.9636C30.2331 77.9445 30.52 77.9198 30.66 77.9088C30.8003 77.8978 30.9582 77.8737 31.0109 77.8557C31.2138 77.7861 32.3035 77.6149 32.3359 77.6474C32.3546 77.6662 32.4014 77.6564 32.4395 77.6253C32.5095 77.5688 33.1405 77.417 33.2277 77.4359C33.2532 77.4414 33.3597 77.4104 33.4638 77.3671C33.568 77.3239 33.7042 77.3019 33.7665 77.3184C33.8291 77.3349 33.8669 77.3268 33.8509 77.3004C33.8141 77.2407 34.4439 77.0889 34.5234 77.1385C34.5552 77.1586 34.5814 77.1481 34.5814 77.1156C34.5814 77.044 35.2789 76.8348 35.356 76.883C35.3859 76.9015 35.4103 76.8908 35.4103 76.8589C35.4103 76.7779 35.9066 76.6352 35.9953 76.6906C36.0429 76.7205 36.0498 76.7066 36.0154 76.6503C35.9775 76.5885 35.9921 76.5763 36.0693 76.6062C36.1276 76.6288 36.1755 76.6239 36.1755 76.5952C36.1755 76.5665 36.2851 76.5096 36.4194 76.469C36.5533 76.4284 37.1599 76.1925 37.7673 75.945C38.3747 75.6973 38.9032 75.5131 38.9422 75.5354C38.981 75.5577 38.9899 75.5508 38.9617 75.5197C38.8972 75.4481 39.5433 75.1551 39.6412 75.2116C39.6813 75.2349 39.6951 75.2325 39.6721 75.2064C39.6314 75.1603 43.1984 73.2903 43.2437 73.3341C43.256 73.346 43.0535 73.6549 42.7932 74.0205C42.5327 74.386 42.0518 75.0767 41.7239 75.5554C41.0339 76.5633 40.5217 77.3039 39.6724 78.5209C38.7976 79.775 37.4485 81.7179 36.8299 82.6146C36.5364 83.0402 36.0116 83.7945 35.6636 84.2908C35.3156 84.7872 34.843 85.469 34.6132 85.8058C34.3834 86.1429 33.9435 86.7811 33.6357 87.2241C31.4052 90.4362 31.1728 90.7936 31.0259 91.2369C30.9587 91.4403 30.8904 91.5937 30.8747 91.5778C30.8589 91.5618 30.8574 91.6491 30.8715 91.7719C30.8856 91.8946 30.8709 91.995 30.8388 91.995C30.7728 91.995 30.7843 92.9337 30.8526 93.1072C30.877 93.1693 30.8772 93.2999 30.8531 93.397C30.829 93.4945 30.8316 93.5514 30.8589 93.5238C30.8861 93.4963 30.9728 93.6668 31.0517 93.903C31.4428 95.0776 32.4831 96.25 33.6489 96.8305C34.0041 97.0071 34.3231 97.1737 34.3581 97.2004C34.3934 97.2273 34.5062 97.2552 34.6089 97.2627C34.7119 97.2703 34.841 97.2946 34.8958 97.3164C34.9509 97.3384 35.1506 97.3663 35.34 97.3788C35.5339 97.3912 35.7072 97.438 35.7373 97.4861C35.7778 97.5505 35.791 97.5517 35.7919 97.4907C35.7927 97.4266 38.4157 97.4101 48.6883 97.4089C57.6634 97.4081 61.7095 97.3863 61.9981 97.3376C62.2259 97.299 62.477 97.2633 62.5559 97.2584C62.6348 97.2532 62.6993 97.2273 62.6993 97.2006C62.6993 97.1742 62.7321 97.1525 62.7716 97.1525C62.961 97.1525 64.0519 96.5572 64.4208 96.2526C65.2908 95.5343 65.9998 94.4957 66.1719 93.6866C66.1963 93.5711 66.2356 93.4884 66.2591 93.5032C66.2827 93.5177 66.3085 93.4092 66.3168 93.2618C66.3251 93.1148 66.3489 92.7692 66.3699 92.4945C66.3977 92.1255 66.3874 91.995 66.3303 91.995C66.2769 91.995 66.2637 91.9149 66.2873 91.7371C66.3062 91.5952 66.2979 91.4791 66.2689 91.4791C66.2399 91.4791 66.1708 91.3399 66.1148 91.1696C66.0101 90.8514 65.625 90.2363 64.7537 88.997C63.4795 87.1847 61.9585 84.9932 61.3305 84.0652C61.1506 83.7994 60.8327 83.3442 60.6241 83.0541C60.4155 82.7637 60.0152 82.189 59.7346 81.7771C59.454 81.3651 58.9949 80.6984 58.7143 80.2958C58.4337 79.8928 58.098 79.4086 57.9683 79.2195C57.7577 78.9126 57.0907 77.9482 55.4182 75.5325C55.127 75.1119 54.6676 74.4591 54.3974 74.082C54.1271 73.7045 53.9305 73.3872 53.9607 73.3764C53.9911 73.3657 54.6714 73.7022 55.4724 74.1243C56.8881 74.8699 58.5663 75.6898 58.8587 75.7788C58.9401 75.8035 58.9846 75.8531 58.9605 75.8925C58.9356 75.9331 58.9476 75.9436 58.9889 75.9178C59.0279 75.8934 59.3694 76.001 59.7478 76.1568C60.1263 76.3126 60.5865 76.4933 60.7707 76.5586C60.9549 76.6236 61.1055 76.7019 61.1055 76.7324C61.1055 76.7629 61.1302 76.7724 61.1606 76.7536C61.191 76.7344 61.5855 76.8307 62.0374 76.9674C62.489 77.104 63.0884 77.2688 63.3687 77.3338C63.6493 77.3988 63.8932 77.4675 63.9107 77.487C63.9282 77.5061 63.9999 77.525 64.0702 77.529C64.2521 77.5395 65.9642 77.82 66.0787 77.858C66.1312 77.8757 66.2746 77.898 66.3974 77.9076C66.5202 77.9172 66.8789 77.9506 67.1945 77.9813C68.172 78.077 71.5447 78.0387 72.5467 77.9204C73.0359 77.8626 73.4484 77.8281 73.4637 77.8435C73.4789 77.8592 73.5466 77.8421 73.6137 77.8058C73.6809 77.7692 73.876 77.7298 74.0472 77.7179C74.2185 77.7057 74.3878 77.6779 74.4234 77.6555C74.459 77.6332 74.6116 77.6042 74.7625 77.5911C74.9135 77.5778 75.0865 77.5467 75.147 77.5221C75.2075 77.4971 75.3725 77.4725 75.5134 77.4669C75.6543 77.4617 75.7696 77.4405 75.7696 77.4199C75.7702 77.3637 76.4106 77.2259 76.4772 77.2673C76.509 77.2874 76.5351 77.2775 76.5351 77.2456C76.5351 77.2137 76.6998 77.1504 76.9006 77.1049C77.1018 77.0593 77.5663 76.9259 77.933 76.8084C78.2997 76.6906 78.6204 76.6074 78.646 76.6233C78.6712 76.6393 78.7016 76.6283 78.7134 76.5992C78.7252 76.5699 79.0362 76.4347 79.4043 76.299C86.6539 73.6242 92.4921 67.7837 94.7329 60.9645C94.9289 60.368 95.0893 59.8223 95.0893 59.7518C95.0893 59.6717 95.1168 59.6413 95.163 59.6703C95.208 59.6984 95.2192 59.688 95.192 59.6433C95.1386 59.556 95.2849 58.7936 95.3549 58.7936C95.3819 58.7936 95.3894 58.755 95.3716 58.7077C95.3535 58.6604 95.3696 58.4936 95.4072 58.337C95.4447 58.1806 95.4898 57.9508 95.507 57.8267C95.5242 57.7025 95.5652 57.4414 95.5982 57.2464C96.5333 51.7263 94.2279 45.5954 88.2098 37.5966C87.9083 37.1956 87.5051 36.6587 87.3146 36.4037C86.9528 35.9198 85.3183 33.9244 84.6893 33.1997C82.353 30.5061 81.9642 30.0799 79.4043 27.4048C75.9461 23.7906 71.1471 19.2258 67.1296 15.7288C66.7833 15.4274 66.2505 14.9632 65.9455 14.6972C65.6408 14.4315 65.1531 14.0108 64.8616 13.7625C64.5703 13.5145 64.2014 13.1927 64.0418 13.0477C63.882 12.9026 63.5868 12.6499 63.3859 12.4863C63.1848 12.3227 62.5966 11.8312 62.0787 11.3943C57.6941 7.69489 48.8989 0.766831 48.5965 0.774084C48.5505 0.775244 48.4269 0.838198 48.3216 0.914207Z"/>
    </mask>
    <path fill-rule="evenodd" clip-rule="evenodd" d="M48.3216 0.914207C45.5982 2.87707 39.661 7.54752 36.2079 10.4425C35.8484 10.7439 35.2028 11.2806 34.7733 11.6351C34.3438 11.9896 33.6443 12.5847 33.2188 12.9572C32.7936 13.3297 32.259 13.7912 32.0309 13.983C31.573 14.3679 29.8753 15.8533 28.5251 17.0503C24.485 20.6325 18.4112 26.5588 15.5564 29.7048C13.5178 31.9511 11.5567 34.238 10.348 35.7785C8.20697 38.5069 6.36725 41.1231 5.33808 42.9024C5.19433 43.1504 4.93266 43.6001 4.75621 43.9015C1.9335 48.7263 0.844937 53.4246 1.58605 57.585C1.65692 57.9824 1.67327 58.0651 1.73983 58.3581C1.778 58.5261 1.80468 58.6857 1.79894 58.7126C1.7932 58.7393 1.80583 58.8049 1.82677 58.8583C1.84772 58.9114 1.93695 59.245 2.02532 59.5995C3.50725 65.5493 8.00843 71.2142 13.8435 74.4736C14.0627 74.5957 14.2257 74.7124 14.2059 74.7324C14.1861 74.7524 14.2076 74.766 14.2538 74.7628C14.3 74.7594 14.6821 74.925 15.1028 75.131C16.1913 75.6636 17.4612 76.2035 18.3865 76.5267C18.8247 76.6799 19.1977 76.8212 19.2155 76.8412C19.233 76.8609 19.3047 76.8806 19.3747 76.8853C19.587 76.8986 20.5846 77.1902 20.6076 77.2453C20.6193 77.2737 20.6521 77.2824 20.6805 77.2647C20.7255 77.2366 21.759 77.4443 22.0206 77.5342C22.0734 77.5522 22.2419 77.5781 22.3951 77.5914C22.5486 77.6047 22.709 77.6451 22.7517 77.681C22.7945 77.717 22.8455 77.7301 22.8648 77.7103C22.8843 77.6909 23.0538 77.706 23.2415 77.744C23.4294 77.782 23.6833 77.8241 23.8061 77.8371C26.2036 78.0945 28.1332 78.1336 30.0225 77.9636C30.2331 77.9445 30.52 77.9198 30.66 77.9088C30.8003 77.8978 30.9582 77.8737 31.0109 77.8557C31.2138 77.7861 32.3035 77.6149 32.3359 77.6474C32.3546 77.6662 32.4014 77.6564 32.4395 77.6253C32.5095 77.5688 33.1405 77.417 33.2277 77.4359C33.2532 77.4414 33.3597 77.4104 33.4638 77.3671C33.568 77.3239 33.7042 77.3019 33.7665 77.3184C33.8291 77.3349 33.8669 77.3268 33.8509 77.3004C33.8141 77.2407 34.4439 77.0889 34.5234 77.1385C34.5552 77.1586 34.5814 77.1481 34.5814 77.1156C34.5814 77.044 35.2789 76.8348 35.356 76.883C35.3859 76.9015 35.4103 76.8908 35.4103 76.8589C35.4103 76.7779 35.9066 76.6352 35.9953 76.6906C36.0429 76.7205 36.0498 76.7066 36.0154 76.6503C35.9775 76.5885 35.9921 76.5763 36.0693 76.6062C36.1276 76.6288 36.1755 76.6239 36.1755 76.5952C36.1755 76.5665 36.2851 76.5096 36.4194 76.469C36.5533 76.4284 37.1599 76.1925 37.7673 75.945C38.3747 75.6973 38.9032 75.5131 38.9422 75.5354C38.981 75.5577 38.9899 75.5508 38.9617 75.5197C38.8972 75.4481 39.5433 75.1551 39.6412 75.2116C39.6813 75.2349 39.6951 75.2325 39.6721 75.2064C39.6314 75.1603 43.1984 73.2903 43.2437 73.3341C43.256 73.346 43.0535 73.6549 42.7932 74.0205C42.5327 74.386 42.0518 75.0767 41.7239 75.5554C41.0339 76.5633 40.5217 77.3039 39.6724 78.5209C38.7976 79.775 37.4485 81.7179 36.8299 82.6146C36.5364 83.0402 36.0116 83.7945 35.6636 84.2908C35.3156 84.7872 34.843 85.469 34.6132 85.8058C34.3834 86.1429 33.9435 86.7811 33.6357 87.2241C31.4052 90.4362 31.1728 90.7936 31.0259 91.2369C30.9587 91.4403 30.8904 91.5937 30.8747 91.5778C30.8589 91.5618 30.8574 91.6491 30.8715 91.7719C30.8856 91.8946 30.8709 91.995 30.8388 91.995C30.7728 91.995 30.7843 92.9337 30.8526 93.1072C30.877 93.1693 30.8772 93.2999 30.8531 93.397C30.829 93.4945 30.8316 93.5514 30.8589 93.5238C30.8861 93.4963 30.9728 93.6668 31.0517 93.903C31.4428 95.0776 32.4831 96.25 33.6489 96.8305C34.0041 97.0071 34.3231 97.1737 34.3581 97.2004C34.3934 97.2273 34.5062 97.2552 34.6089 97.2627C34.7119 97.2703 34.841 97.2946 34.8958 97.3164C34.9509 97.3384 35.1506 97.3663 35.34 97.3788C35.5339 97.3912 35.7072 97.438 35.7373 97.4861C35.7778 97.5505 35.791 97.5517 35.7919 97.4907C35.7927 97.4266 38.4157 97.4101 48.6883 97.4089C57.6634 97.4081 61.7095 97.3863 61.9981 97.3376C62.2259 97.299 62.477 97.2633 62.5559 97.2584C62.6348 97.2532 62.6993 97.2273 62.6993 97.2006C62.6993 97.1742 62.7321 97.1525 62.7716 97.1525C62.961 97.1525 64.0519 96.5572 64.4208 96.2526C65.2908 95.5343 65.9998 94.4957 66.1719 93.6866C66.1963 93.5711 66.2356 93.4884 66.2591 93.5032C66.2827 93.5177 66.3085 93.4092 66.3168 93.2618C66.3251 93.1148 66.3489 92.7692 66.3699 92.4945C66.3977 92.1255 66.3874 91.995 66.3303 91.995C66.2769 91.995 66.2637 91.9149 66.2873 91.7371C66.3062 91.5952 66.2979 91.4791 66.2689 91.4791C66.2399 91.4791 66.1708 91.3399 66.1148 91.1696C66.0101 90.8514 65.625 90.2363 64.7537 88.997C63.4795 87.1847 61.9585 84.9932 61.3305 84.0652C61.1506 83.7994 60.8327 83.3442 60.6241 83.0541C60.4155 82.7637 60.0152 82.189 59.7346 81.7771C59.454 81.3651 58.9949 80.6984 58.7143 80.2958C58.4337 79.8928 58.098 79.4086 57.9683 79.2195C57.7577 78.9126 57.0907 77.9482 55.4182 75.5325C55.127 75.1119 54.6676 74.4591 54.3974 74.082C54.1271 73.7045 53.9305 73.3872 53.9607 73.3764C53.9911 73.3657 54.6714 73.7022 55.4724 74.1243C56.8881 74.8699 58.5663 75.6898 58.8587 75.7788C58.9401 75.8035 58.9846 75.8531 58.9605 75.8925C58.9356 75.9331 58.9476 75.9436 58.9889 75.9178C59.0279 75.8934 59.3694 76.001 59.7478 76.1568C60.1263 76.3126 60.5865 76.4933 60.7707 76.5586C60.9549 76.6236 61.1055 76.7019 61.1055 76.7324C61.1055 76.7629 61.1302 76.7724 61.1606 76.7536C61.191 76.7344 61.5855 76.8307 62.0374 76.9674C62.489 77.104 63.0884 77.2688 63.3687 77.3338C63.6493 77.3988 63.8932 77.4675 63.9107 77.487C63.9282 77.5061 63.9999 77.525 64.0702 77.529C64.2521 77.5395 65.9642 77.82 66.0787 77.858C66.1312 77.8757 66.2746 77.898 66.3974 77.9076C66.5202 77.9172 66.8789 77.9506 67.1945 77.9813C68.172 78.077 71.5447 78.0387 72.5467 77.9204C73.0359 77.8626 73.4484 77.8281 73.4637 77.8435C73.4789 77.8592 73.5466 77.8421 73.6137 77.8058C73.6809 77.7692 73.876 77.7298 74.0472 77.7179C74.2185 77.7057 74.3878 77.6779 74.4234 77.6555C74.459 77.6332 74.6116 77.6042 74.7625 77.5911C74.9135 77.5778 75.0865 77.5467 75.147 77.5221C75.2075 77.4971 75.3725 77.4725 75.5134 77.4669C75.6543 77.4617 75.7696 77.4405 75.7696 77.4199C75.7702 77.3637 76.4106 77.2259 76.4772 77.2673C76.509 77.2874 76.5351 77.2775 76.5351 77.2456C76.5351 77.2137 76.6998 77.1504 76.9006 77.1049C77.1018 77.0593 77.5663 76.9259 77.933 76.8084C78.2997 76.6906 78.6204 76.6074 78.646 76.6233C78.6712 76.6393 78.7016 76.6283 78.7134 76.5992C78.7252 76.5699 79.0362 76.4347 79.4043 76.299C86.6539 73.6242 92.4921 67.7837 94.7329 60.9645C94.9289 60.368 95.0893 59.8223 95.0893 59.7518C95.0893 59.6717 95.1168 59.6413 95.163 59.6703C95.208 59.6984 95.2192 59.688 95.192 59.6433C95.1386 59.556 95.2849 58.7936 95.3549 58.7936C95.3819 58.7936 95.3894 58.755 95.3716 58.7077C95.3535 58.6604 95.3696 58.4936 95.4072 58.337C95.4447 58.1806 95.4898 57.9508 95.507 57.8267C95.5242 57.7025 95.5652 57.4414 95.5982 57.2464C96.5333 51.7263 94.2279 45.5954 88.2098 37.5966C87.9083 37.1956 87.5051 36.6587 87.3146 36.4037C86.9528 35.9198 85.3183 33.9244 84.6893 33.1997C82.353 30.5061 81.9642 30.0799 79.4043 27.4048C75.9461 23.7906 71.1471 19.2258 67.1296 15.7288C66.7833 15.4274 66.2505 14.9632 65.9455 14.6972C65.6408 14.4315 65.1531 14.0108 64.8616 13.7625C64.5703 13.5145 64.2014 13.1927 64.0418 13.0477C63.882 12.9026 63.5868 12.6499 63.3859 12.4863C63.1848 12.3227 62.5966 11.8312 62.0787 11.3943C57.6941 7.69489 48.8989 0.766831 48.5965 0.774084C48.5505 0.775244 48.4269 0.838198 48.3216 0.914207Z" fill="black"/>
    <path fill-rule="evenodd" clip-rule="evenodd" d="M48.3216 0.914207C45.5982 2.87707 39.661 7.54752 36.2079 10.4425C35.8484 10.7439 35.2028 11.2806 34.7733 11.6351C34.3438 11.9896 33.6443 12.5847 33.2188 12.9572C32.7936 13.3297 32.259 13.7912 32.0309 13.983C31.573 14.3679 29.8753 15.8533 28.5251 17.0503C24.485 20.6325 18.4112 26.5588 15.5564 29.7048C13.5178 31.9511 11.5567 34.238 10.348 35.7785C8.20697 38.5069 6.36725 41.1231 5.33808 42.9024C5.19433 43.1504 4.93266 43.6001 4.75621 43.9015C1.9335 48.7263 0.844937 53.4246 1.58605 57.585C1.65692 57.9824 1.67327 58.0651 1.73983 58.3581C1.778 58.5261 1.80468 58.6857 1.79894 58.7126C1.7932 58.7393 1.80583 58.8049 1.82677 58.8583C1.84772 58.9114 1.93695 59.245 2.02532 59.5995C3.50725 65.5493 8.00843 71.2142 13.8435 74.4736C14.0627 74.5957 14.2257 74.7124 14.2059 74.7324C14.1861 74.7524 14.2076 74.766 14.2538 74.7628C14.3 74.7594 14.6821 74.925 15.1028 75.131C16.1913 75.6636 17.4612 76.2035 18.3865 76.5267C18.8247 76.6799 19.1977 76.8212 19.2155 76.8412C19.233 76.8609 19.3047 76.8806 19.3747 76.8853C19.587 76.8986 20.5846 77.1902 20.6076 77.2453C20.6193 77.2737 20.6521 77.2824 20.6805 77.2647C20.7255 77.2366 21.759 77.4443 22.0206 77.5342C22.0734 77.5522 22.2419 77.5781 22.3951 77.5914C22.5486 77.6047 22.709 77.6451 22.7517 77.681C22.7945 77.717 22.8455 77.7301 22.8648 77.7103C22.8843 77.6909 23.0538 77.706 23.2415 77.744C23.4294 77.782 23.6833 77.8241 23.8061 77.8371C26.2036 78.0945 28.1332 78.1336 30.0225 77.9636C30.2331 77.9445 30.52 77.9198 30.66 77.9088C30.8003 77.8978 30.9582 77.8737 31.0109 77.8557C31.2138 77.7861 32.3035 77.6149 32.3359 77.6474C32.3546 77.6662 32.4014 77.6564 32.4395 77.6253C32.5095 77.5688 33.1405 77.417 33.2277 77.4359C33.2532 77.4414 33.3597 77.4104 33.4638 77.3671C33.568 77.3239 33.7042 77.3019 33.7665 77.3184C33.8291 77.3349 33.8669 77.3268 33.8509 77.3004C33.8141 77.2407 34.4439 77.0889 34.5234 77.1385C34.5552 77.1586 34.5814 77.1481 34.5814 77.1156C34.5814 77.044 35.2789 76.8348 35.356 76.883C35.3859 76.9015 35.4103 76.8908 35.4103 76.8589C35.4103 76.7779 35.9066 76.6352 35.9953 76.6906C36.0429 76.7205 36.0498 76.7066 36.0154 76.6503C35.9775 76.5885 35.9921 76.5763 36.0693 76.6062C36.1276 76.6288 36.1755 76.6239 36.1755 76.5952C36.1755 76.5665 36.2851 76.5096 36.4194 76.469C36.5533 76.4284 37.1599 76.1925 37.7673 75.945C38.3747 75.6973 38.9032 75.5131 38.9422 75.5354C38.981 75.5577 38.9899 75.5508 38.9617 75.5197C38.8972 75.4481 39.5433 75.1551 39.6412 75.2116C39.6813 75.2349 39.6951 75.2325 39.6721 75.2064C39.6314 75.1603 43.1984 73.2903 43.2437 73.3341C43.256 73.346 43.0535 73.6549 42.7932 74.0205C42.5327 74.386 42.0518 75.0767 41.7239 75.5554C41.0339 76.5633 40.5217 77.3039 39.6724 78.5209C38.7976 79.775 37.4485 81.7179 36.8299 82.6146C36.5364 83.0402 36.0116 83.7945 35.6636 84.2908C35.3156 84.7872 34.843 85.469 34.6132 85.8058C34.3834 86.1429 33.9435 86.7811 33.6357 87.2241C31.4052 90.4362 31.1728 90.7936 31.0259 91.2369C30.9587 91.4403 30.8904 91.5937 30.8747 91.5778C30.8589 91.5618 30.8574 91.6491 30.8715 91.7719C30.8856 91.8946 30.8709 91.995 30.8388 91.995C30.7728 91.995 30.7843 92.9337 30.8526 93.1072C30.877 93.1693 30.8772 93.2999 30.8531 93.397C30.829 93.4945 30.8316 93.5514 30.8589 93.5238C30.8861 93.4963 30.9728 93.6668 31.0517 93.903C31.4428 95.0776 32.4831 96.25 33.6489 96.8305C34.0041 97.0071 34.3231 97.1737 34.3581 97.2004C34.3934 97.2273 34.5062 97.2552 34.6089 97.2627C34.7119 97.2703 34.841 97.2946 34.8958 97.3164C34.9509 97.3384 35.1506 97.3663 35.34 97.3788C35.5339 97.3912 35.7072 97.438 35.7373 97.4861C35.7778 97.5505 35.791 97.5517 35.7919 97.4907C35.7927 97.4266 38.4157 97.4101 48.6883 97.4089C57.6634 97.4081 61.7095 97.3863 61.9981 97.3376C62.2259 97.299 62.477 97.2633 62.5559 97.2584C62.6348 97.2532 62.6993 97.2273 62.6993 97.2006C62.6993 97.1742 62.7321 97.1525 62.7716 97.1525C62.961 97.1525 64.0519 96.5572 64.4208 96.2526C65.2908 95.5343 65.9998 94.4957 66.1719 93.6866C66.1963 93.5711 66.2356 93.4884 66.2591 93.5032C66.2827 93.5177 66.3085 93.4092 66.3168 93.2618C66.3251 93.1148 66.3489 92.7692 66.3699 92.4945C66.3977 92.1255 66.3874 91.995 66.3303 91.995C66.2769 91.995 66.2637 91.9149 66.2873 91.7371C66.3062 91.5952 66.2979 91.4791 66.2689 91.4791C66.2399 91.4791 66.1708 91.3399 66.1148 91.1696C66.0101 90.8514 65.625 90.2363 64.7537 88.997C63.4795 87.1847 61.9585 84.9932 61.3305 84.0652C61.1506 83.7994 60.8327 83.3442 60.6241 83.0541C60.4155 82.7637 60.0152 82.189 59.7346 81.7771C59.454 81.3651 58.9949 80.6984 58.7143 80.2958C58.4337 79.8928 58.098 79.4086 57.9683 79.2195C57.7577 78.9126 57.0907 77.9482 55.4182 75.5325C55.127 75.1119 54.6676 74.4591 54.3974 74.082C54.1271 73.7045 53.9305 73.3872 53.9607 73.3764C53.9911 73.3657 54.6714 73.7022 55.4724 74.1243C56.8881 74.8699 58.5663 75.6898 58.8587 75.7788C58.9401 75.8035 58.9846 75.8531 58.9605 75.8925C58.9356 75.9331 58.9476 75.9436 58.9889 75.9178C59.0279 75.8934 59.3694 76.001 59.7478 76.1568C60.1263 76.3126 60.5865 76.4933 60.7707 76.5586C60.9549 76.6236 61.1055 76.7019 61.1055 76.7324C61.1055 76.7629 61.1302 76.7724 61.1606 76.7536C61.191 76.7344 61.5855 76.8307 62.0374 76.9674C62.489 77.104 63.0884 77.2688 63.3687 77.3338C63.6493 77.3988 63.8932 77.4675 63.9107 77.487C63.9282 77.5061 63.9999 77.525 64.0702 77.529C64.2521 77.5395 65.9642 77.82 66.0787 77.858C66.1312 77.8757 66.2746 77.898 66.3974 77.9076C66.5202 77.9172 66.8789 77.9506 67.1945 77.9813C68.172 78.077 71.5447 78.0387 72.5467 77.9204C73.0359 77.8626 73.4484 77.8281 73.4637 77.8435C73.4789 77.8592 73.5466 77.8421 73.6137 77.8058C73.6809 77.7692 73.876 77.7298 74.0472 77.7179C74.2185 77.7057 74.3878 77.6779 74.4234 77.6555C74.459 77.6332 74.6116 77.6042 74.7625 77.5911C74.9135 77.5778 75.0865 77.5467 75.147 77.5221C75.2075 77.4971 75.3725 77.4725 75.5134 77.4669C75.6543 77.4617 75.7696 77.4405 75.7696 77.4199C75.7702 77.3637 76.4106 77.2259 76.4772 77.2673C76.509 77.2874 76.5351 77.2775 76.5351 77.2456C76.5351 77.2137 76.6998 77.1504 76.9006 77.1049C77.1018 77.0593 77.5663 76.9259 77.933 76.8084C78.2997 76.6906 78.6204 76.6074 78.646 76.6233C78.6712 76.6393 78.7016 76.6283 78.7134 76.5992C78.7252 76.5699 79.0362 76.4347 79.4043 76.299C86.6539 73.6242 92.4921 67.7837 94.7329 60.9645C94.9289 60.368 95.0893 59.8223 95.0893 59.7518C95.0893 59.6717 95.1168 59.6413 95.163 59.6703C95.208 59.6984 95.2192 59.688 95.192 59.6433C95.1386 59.556 95.2849 58.7936 95.3549 58.7936C95.3819 58.7936 95.3894 58.755 95.3716 58.7077C95.3535 58.6604 95.3696 58.4936 95.4072 58.337C95.4447 58.1806 95.4898 57.9508 95.507 57.8267C95.5242 57.7025 95.5652 57.4414 95.5982 57.2464C96.5333 51.7263 94.2279 45.5954 88.2098 37.5966C87.9083 37.1956 87.5051 36.6587 87.3146 36.4037C86.9528 35.9198 85.3183 33.9244 84.6893 33.1997C82.353 30.5061 81.9642 30.0799 79.4043 27.4048C75.9461 23.7906 71.1471 19.2258 67.1296 15.7288C66.7833 15.4274 66.2505 14.9632 65.9455 14.6972C65.6408 14.4315 65.1531 14.0108 64.8616 13.7625C64.5703 13.5145 64.2014 13.1927 64.0418 13.0477C63.882 12.9026 63.5868 12.6499 63.3859 12.4863C63.1848 12.3227 62.5966 11.8312 62.0787 11.3943C57.6941 7.69489 48.8989 0.766831 48.5965 0.774084C48.5505 0.775244 48.4269 0.838198 48.3216 0.914207Z" stroke="white" mask="url(#path-1-outside-1_4197_496)"/>
</svg>
